<svg width="83" height="82" viewBox="0 0 83 82" fill="none" xmlns="http://www.w3.org/2000/svg">
<path d="M70.3302 8.47083H12.7285L17.811 66.0725L41.5294 72.8492L65.2477 66.0725L70.3302 8.47083Z" fill="#0277BD"/>
<path d="M41.5298 13.5533V67.5972L60.5045 62.1759L64.7399 13.5533H41.5298Z" fill="#039BE5"/>
<path d="M56.9467 22.0242H41.5298V28.8008H49.8312L49.323 35.5775H41.5298V42.3542H48.9841L48.4759 49.9779L41.5298 52.3498V59.4653L54.9137 55.0604L56.0996 35.5775L56.9467 22.0242Z" fill="white"/>
<path d="M41.5297 22.0242V28.8008H26.4516L25.9434 22.0242H41.5297ZM33.7365 35.5775L34.0754 42.3542H41.5297V35.5775H33.7365ZM34.4142 45.7425H27.6375L28.1458 55.0604L41.5297 59.4653V52.3498L34.5836 49.9779L34.4142 45.7425Z" fill="#EEEEEE"/>
</svg>
