<svg width="82" height="82" viewBox="0 0 82 82" fill="none" xmlns="http://www.w3.org/2000/svg">
<path d="M67.5409 44.4506C64.9353 44.4641 62.6787 45.0893 60.788 46.0228C60.0968 44.642 59.3954 43.4273 59.2785 42.5243C59.1413 41.4705 58.982 40.8403 59.148 39.5849C59.3141 38.3295 60.0409 36.5507 60.0307 36.4168C60.0205 36.283 59.868 35.6443 58.3653 35.6324C56.8626 35.6223 55.5767 35.9221 55.4259 36.3186C55.2752 36.715 54.9855 37.6078 54.8059 38.5396C54.5433 39.9017 51.8055 44.7623 50.252 47.3035C49.7437 46.3108 49.3117 45.4366 49.2219 44.7453C49.0847 43.6916 48.9254 43.0614 49.0915 41.806C49.2575 40.5506 49.9843 38.7717 49.9741 38.6379C49.964 38.504 49.8115 37.8653 48.3088 37.8535C46.806 37.8433 45.5202 38.1432 45.3694 38.5396C45.2186 38.9361 45.056 39.8628 44.7493 40.7607C44.441 41.6569 40.8036 49.7635 39.8498 51.8659C39.3636 52.9366 38.9417 53.7973 38.6435 54.3835C38.6418 54.3818 38.6418 54.3801 38.6418 54.3801C38.6418 54.3801 38.6232 54.419 38.5927 54.4851C38.3369 54.9849 38.1861 55.2611 38.1861 55.2611C38.1861 55.2611 38.1878 55.2644 38.1912 55.2712C37.9879 55.6388 37.771 55.9794 37.6643 55.9794C37.5898 55.9794 37.439 55.0018 37.6965 53.6601C38.2386 50.8477 39.5381 46.4632 39.5262 46.3108C39.5194 46.2328 39.7685 45.4688 38.6774 45.0689C37.6169 44.681 37.2391 45.3281 37.1425 45.3298C37.0493 45.3315 36.9799 45.5586 36.9799 45.5586C36.9799 45.5586 38.1607 40.6268 34.7266 40.6268C32.5784 40.6268 29.6035 42.9766 28.138 45.1062C27.213 45.6111 25.2325 46.6919 23.1334 47.8457C22.327 48.2895 21.5036 48.7419 20.7226 49.1722C20.6701 49.1129 20.6159 49.0553 20.5617 48.996C16.3957 44.5522 8.69744 41.4095 9.02272 35.4342C9.14131 33.2623 9.89691 27.5428 23.8179 20.6069C35.2213 14.9246 44.3512 16.4883 45.9285 19.9529C48.1817 24.905 41.0492 34.106 29.207 35.4342C24.6955 35.9408 22.3185 34.1907 21.7273 33.5401C21.1055 32.854 21.0123 32.8235 20.7802 32.9523C20.4024 33.1623 20.6413 33.7672 20.7802 34.128C21.1343 35.0479 22.5845 36.6794 25.058 37.4926C27.235 38.2076 32.5327 38.5989 38.9383 36.1203C46.1148 33.3453 51.7174 25.6233 50.0707 19.1702C48.3969 12.607 37.5135 10.4486 27.213 14.108C21.075 16.2867 14.439 19.7056 9.6665 24.168C3.99273 29.4741 3.08805 34.0941 3.46077 36.0238C4.78561 42.8818 14.2374 47.3476 18.0221 50.6563C17.8358 50.7596 17.6596 50.8562 17.5003 50.9443C15.6029 51.8829 8.39757 55.6541 6.59498 59.6371C4.55012 64.1554 6.92026 67.3981 8.48905 67.8352C13.3496 69.1871 18.3372 66.7543 21.0191 62.756C23.6993 58.7595 23.3723 53.5533 22.1423 51.1781C22.1271 51.1493 22.1102 51.1205 22.0949 51.09C22.5845 50.8003 23.0843 50.5055 23.579 50.2141C24.5447 49.6466 25.4934 49.118 26.3151 48.6707C25.8543 49.9312 25.5171 51.4441 25.3426 53.6279C25.1359 56.1928 26.188 59.5083 27.5637 60.8128C28.1702 61.3871 28.8987 61.4007 29.3595 61.4007C30.9605 61.4007 31.6907 60.0691 32.4954 58.4935C33.4814 56.5622 34.3573 54.3123 34.3573 54.3123C34.3573 54.3123 33.2595 60.3876 36.2514 60.3876C37.3424 60.3876 38.4385 58.973 38.9282 58.2529C38.9298 58.2614 38.9298 58.2648 38.9298 58.2648C38.9298 58.2648 38.9586 58.2174 39.0146 58.1242C39.1281 57.9514 39.1924 57.8413 39.1924 57.8413C39.1924 57.8413 39.1941 57.8294 39.1975 57.8091C39.6363 57.0484 40.6088 55.3136 42.0658 52.4521C43.9497 48.7554 45.7556 44.1236 45.7556 44.1236C45.7556 44.1236 45.9234 45.2553 46.474 47.129C46.7976 48.2303 47.4854 49.4484 48.0292 50.6173C47.5921 51.2238 47.3244 51.5712 47.3244 51.5712C47.3244 51.5712 47.3261 51.5779 47.3312 51.5898C46.9822 52.054 46.5909 52.5538 46.1809 53.0417C44.6934 54.8121 42.923 56.8349 42.6858 57.4177C42.4063 58.1056 42.4723 58.6104 43.0128 59.0187C43.4075 59.3152 44.1089 59.3626 44.8425 59.3135C46.1792 59.2237 47.1178 58.8916 47.582 58.69C48.3054 58.4342 49.1474 58.0327 49.9368 57.4516C51.3955 56.3792 52.2748 54.846 52.1901 52.813C52.1427 51.6931 51.7869 50.5835 51.3345 49.5365C51.4667 49.3467 51.5988 49.1536 51.7327 48.9604C54.0316 45.5992 55.8156 41.9059 55.8156 41.9059C55.8156 41.9059 55.9833 43.0376 56.5339 44.9114C56.8118 45.8584 57.3624 46.8936 57.8571 47.9067C55.6953 49.6635 54.3552 51.705 53.8893 53.0434C53.0287 55.5203 53.703 56.6418 54.9668 56.8976C55.5395 57.0128 56.3493 56.7502 56.9575 56.4927C57.7148 56.242 58.6245 55.8235 59.475 55.1984C60.9337 54.126 62.3364 52.6249 62.2517 50.5936C62.2128 49.6686 61.962 48.7504 61.6215 47.8694C63.4546 47.1053 65.8264 46.6818 68.8488 47.0342C75.3324 47.7915 76.603 51.8388 76.3608 53.533C76.1168 55.2272 74.7581 56.159 74.3024 56.4402C73.8483 56.7214 73.7094 56.8197 73.7467 57.0281C73.8026 57.3313 74.0126 57.3212 74.4006 57.2551C74.9343 57.1653 77.8042 55.8777 77.9279 52.7503C78.082 48.7758 74.2786 44.415 67.5409 44.4506ZM17.5681 61.2974C15.4199 63.6404 12.4212 64.5248 11.1336 63.7793C9.74443 62.9746 10.295 59.5253 12.9295 57.0382C14.5355 55.5236 16.6092 54.1276 17.9849 53.2687C18.2983 53.0807 18.7574 52.8045 19.3165 52.4691C19.4097 52.4165 19.4622 52.3877 19.4622 52.3877L19.4605 52.3843C19.5689 52.32 19.679 52.2539 19.7925 52.1844C20.7531 55.7236 19.823 58.8391 17.5681 61.2974ZM33.2137 50.6631C32.4666 52.486 30.9012 57.1517 29.9474 56.901C29.1291 56.6858 28.631 53.1399 29.7847 49.65C30.3641 47.8931 31.6043 45.794 32.3328 44.9791C33.5051 43.6679 34.7961 43.2392 35.1095 43.7712C35.5076 44.4489 33.683 49.5195 33.2137 50.6631ZM46.1385 56.8298C45.8217 56.9959 45.5303 57.0992 45.3965 57.0196C45.2965 56.9603 45.5269 56.7417 45.5269 56.7417C45.5269 56.7417 47.1432 55.0018 47.7802 54.2107C48.1512 53.7498 48.5798 53.2026 49.0474 52.5927C49.0508 52.6537 49.0525 52.7147 49.0525 52.774C49.0491 54.8578 47.0364 56.264 46.1385 56.8298ZM56.0951 54.5597C55.858 54.3919 55.8986 53.8481 56.6762 52.1523C56.9812 51.4864 57.6792 50.3666 58.8888 49.2959C59.0294 49.7364 59.1141 50.1582 59.1124 50.5513C59.0972 53.1738 57.2268 54.1531 56.0951 54.5597Z" fill="#F06292"/>
</svg>
