<svg width="82" height="82" viewBox="0 0 82 82" fill="none" xmlns="http://www.w3.org/2000/svg">
<path d="M69.4606 8.47089H11.8589L16.9414 66.0726L40.6597 72.8492L64.3781 66.0726L69.4606 8.47089Z" fill="#E65100"/>
<path d="M40.6602 13.5534V67.5973L59.6348 62.176L63.8702 13.5534H40.6602Z" fill="#FF6D00"/>
<path d="M40.6602 42.3541V35.5774H55.23L54.0441 55.0604L40.6602 59.4652V52.3497L47.6062 49.9779L48.1145 42.3541H40.6602ZM55.7382 28.8008L56.2465 22.0241H40.6602V28.8008H55.7382Z" fill="white"/>
<path d="M40.6601 52.3497V59.4652L27.2762 55.0604L26.5985 45.7424H33.3752L33.714 49.9779L40.6601 52.3497ZM32.3587 28.8008H40.6601V22.0241H25.2432L26.4291 42.3541H40.6601V35.5774H32.8669L32.3587 28.8008Z" fill="#EEEEEE"/>
</svg>
