<svg width="83" height="82" viewBox="0 0 83 82" fill="none" xmlns="http://www.w3.org/2000/svg">
<path d="M72.3638 38.2367L44.7489 10.6218C43.9018 9.77473 42.7159 9.26648 41.53 9.26648C40.3441 9.26648 39.1582 9.77473 38.3111 10.6218L32.3815 16.5514L39.3276 23.4975C40.0052 23.1586 40.6829 22.9892 41.53 22.9892C44.4101 22.9892 46.6125 25.1916 46.6125 28.0717C46.6125 28.9188 46.4431 29.5965 46.1042 30.2741L52.8809 37.0508C53.5586 36.712 54.2362 36.5426 55.0833 36.5426C57.9634 36.5426 60.1658 38.745 60.1658 41.6251C60.1658 44.5051 57.9634 46.7076 55.0833 46.7076C52.2032 46.7076 50.0008 44.5051 50.0008 41.6251C50.0008 40.778 50.1702 40.1003 50.5091 39.4226L43.7324 32.646C43.563 32.646 43.3936 32.8154 43.2242 32.8154V50.4347C45.2572 51.1124 46.6125 52.976 46.6125 55.1784C46.6125 58.0585 44.4101 60.2609 41.53 60.2609C38.6499 60.2609 36.4475 58.0585 36.4475 55.1784C36.4475 52.976 37.8028 51.1124 39.8358 50.4347V32.646C37.8028 31.9683 36.4475 30.1047 36.4475 27.9023C36.4475 27.0552 36.6169 26.3776 36.9557 25.6999L30.0097 18.7538L10.6962 38.2367C9.84907 39.0838 9.34082 40.2697 9.34082 41.4556C9.34082 42.6416 9.84907 43.8275 10.6962 44.6746L38.3111 72.2895C39.1582 73.1366 40.3441 73.6448 41.53 73.6448C42.7159 73.6448 43.9018 73.1366 44.7489 72.2895L72.3638 44.6746C73.2109 43.8275 73.7192 42.6416 73.7192 41.4556C73.7192 40.2697 73.2109 39.0838 72.3638 38.2367Z" fill="#F4511E"/>
</svg>
