<svg width="83" height="82" viewBox="0 0 83 82" fill="none" xmlns="http://www.w3.org/2000/svg">
<path d="M36.8949 7.96664C21.3085 9.66081 8.77169 22.1976 7.07752 37.4451C5.38335 53.3703 14.5319 67.6013 28.424 73.0226C29.4405 73.3615 30.457 72.6838 30.457 71.3285V65.9071C30.457 65.9071 29.1017 66.246 27.4075 66.246C22.6639 66.246 20.6309 62.18 20.292 59.8081C19.9532 58.4528 19.2755 57.4363 18.259 56.4198C17.2425 56.081 16.9037 56.081 16.9037 55.7421C16.9037 55.0645 17.9202 55.0645 18.259 55.0645C20.292 55.0645 21.9862 57.4363 22.6639 58.4528C24.358 61.1635 26.391 61.8411 27.4075 61.8411C28.7629 61.8411 29.7794 61.5023 30.457 61.1635C30.7959 58.7916 31.8124 56.4198 33.8454 55.0645C26.0522 53.3703 20.292 48.9655 20.292 41.5111C20.292 37.784 21.9862 34.0568 24.358 31.3461C24.0192 30.6685 23.6804 28.9743 23.6804 26.6025C23.6804 25.2471 23.6804 23.2141 24.6969 21.1811C24.6969 21.1811 29.4405 21.1811 34.1842 25.586C35.8784 24.9083 38.2502 24.5695 40.622 24.5695C42.9939 24.5695 45.3657 24.9083 47.3987 25.586C51.8035 21.1811 56.886 21.1811 56.886 21.1811C57.5637 23.2141 57.5637 25.2471 57.5637 26.6025C57.5637 29.3131 57.2249 30.6685 56.886 31.3461C59.2579 34.0568 60.952 37.4451 60.952 41.5111C60.952 48.9655 55.1919 53.3703 47.3987 55.0645C49.4317 56.7586 50.787 59.8081 50.787 62.8576V71.6673C50.787 72.6838 51.8035 73.7003 53.1589 73.3615C65.6957 68.279 74.5054 56.081 74.5054 41.85C74.5054 21.52 57.2249 5.59481 36.8949 7.96664Z" fill="black"/>
</svg>
