<svg width="82" height="82" viewBox="0 0 83 82" fill="none" xmlns="http://www.w3.org/2000/svg">
<path d="M10.9038 71.155V10.165H71.8938V71.155H10.9038Z" fill="#FFD600"/>
<path d="M50.781 55.8178C51.9533 57.722 53.2274 59.5466 55.9262 59.5466C58.193 59.5466 59.3823 58.42 59.3823 56.8614C59.3823 54.9961 58.1523 54.3337 55.6585 53.2477L54.2913 52.6649C50.3456 50.9911 47.7213 48.8937 47.7213 44.4635C47.7213 40.3805 50.847 37.2734 55.7313 37.2734C59.2095 37.2734 61.7083 38.478 63.5109 41.6325L59.2518 44.355C58.3149 42.6812 57.3018 42.0222 55.7313 42.0222C54.1286 42.0222 53.1138 43.0336 53.1138 44.355C53.1138 45.9882 54.1303 46.6489 56.4768 47.6604L57.844 48.2432C62.4944 50.2236 65.117 52.2465 65.117 56.7936C65.117 61.6931 61.2475 64.3784 56.0532 64.3784C50.9724 64.3784 48.0872 61.8287 46.4812 58.6724L50.781 55.8178ZM31.1524 55.9567C32.0096 57.4916 33.3124 58.6724 35.1862 58.6724C36.9786 58.6724 38.0103 57.9643 38.0103 55.2113V37.2717H43.657V56.0787C43.657 61.7829 40.3483 64.3784 35.5165 64.3784C31.1507 64.3784 27.9995 61.4204 26.7153 58.6724L31.1524 55.9567Z" fill="#000001"/>
</svg>
