<svg width="82" height="82" viewBox="0 0 75 74" fill="none" xmlns="http://www.w3.org/2000/svg">
<path d="M40.5014 26.0838H28.2267C22.2949 26.0838 17.4863 21.2752 17.4863 15.3434C17.4863 9.41165 22.2949 4.60303 28.2267 4.60303H40.5014V26.0838Z" fill="#E64A19"/>
<path d="M38.9671 47.5647H28.2267C22.2949 47.5647 17.4863 42.7561 17.4863 36.8244C17.4863 30.8926 22.2949 26.084 28.2267 26.084H38.9671V47.5647Z" fill="#7C4DFF"/>
<path d="M28.2267 69.0451C22.2949 69.0451 17.4863 64.2365 17.4863 58.3047C17.4863 52.373 22.2949 47.5643 28.2267 47.5643H38.9671V58.3047C38.9671 64.2365 34.1585 69.0451 28.2267 69.0451Z" fill="#66BB6A"/>
<path d="M49.7072 26.0838H38.9668V4.60303H49.7072C55.6389 4.60303 60.4476 9.41165 60.4476 15.3434C60.4476 21.2752 55.6389 26.0838 49.7072 26.0838Z" fill="#FF7043"/>
<path d="M49.7072 47.5647C55.6389 47.5647 60.4476 42.7561 60.4476 36.8244C60.4476 30.8926 55.6389 26.084 49.7072 26.084C43.7754 26.084 38.9668 30.8926 38.9668 36.8244C38.9668 42.7561 43.7754 47.5647 49.7072 47.5647Z" fill="#29B6F6"/>
</svg>
